<svg height="22" width="100" xmlns="http://www.w3.org/2000/svg" viewBox="0 0 100 22"><path fill="#f5f6fa" fill-rule="evenodd" d="M99.82 17.97a9.49 9.49 0 0 1 0 3.68H87.83V.35h11.79c.12.6.17 1.2.17 1.81 0 .65-.05 1.28-.17 1.87h-7.57v4.62h6.01c.12.63.17 1.24.17 1.83 0 .63-.05 1.26-.17 1.87h-6.01v5.62h7.77zm-18.11 3.84c-1.09.13-2.04.19-2.85.19-1.69 0-3.18-.27-4.45-.81-1.27-.55-2.33-1.31-3.18-2.28-.85-.98-1.48-2.14-1.9-3.48-.43-1.34-.64-2.81-.64-4.38 0-1.58.22-3.05.66-4.4.45-1.35 1.09-2.52 1.93-3.51.83-.99 1.86-1.76 3.09-2.31C75.59.28 76.99 0 78.55 0c.92 0 1.78.06 2.58.18s1.64.36 2.5.74c-.03.59-.15 1.17-.34 1.73-.2.56-.41 1.13-.64 1.7-.67-.23-1.27-.4-1.79-.5a9.95 9.95 0 0 0-1.85-.15c-1.85 0-3.27.62-4.27 1.85-.99 1.24-1.48 3.07-1.48 5.5 0 2.42.49 4.23 1.47 5.43.98 1.19 2.43 1.79 4.34 1.79.32 0 .62-.02.88-.06.26-.04.49-.08.71-.12V10.6c.71-.12 1.4-.18 2.08-.18.67 0 1.38.06 2.11.18v10.45c-1 .38-2.05.63-3.14.76zM54.99 22c-.99 0-1.89-.03-2.72-.1-.83-.07-1.65-.16-2.46-.25V.35c.81-.09 1.66-.18 2.55-.25.88-.07 1.86-.1 2.94-.1 3.65 0 6.42.93 8.31 2.78 1.9 1.86 2.85 4.64 2.85 8.35 0 3.74-.96 6.48-2.89 8.24-1.93 1.75-4.79 2.63-8.58 2.63zm6.5-14.51c-.33-.95-.77-1.7-1.33-2.25s-1.2-.94-1.92-1.17a7.53 7.53 0 0 0-2.3-.34c-.27 0-.58.01-.94.01-.36.02-.67.04-.94.08v14.39a13.93 13.93 0 0 0 1.65.09c.88 0 1.71-.1 2.47-.31.76-.21 1.42-.59 1.98-1.14.56-.55 1-1.29 1.33-2.22.33-.93.49-2.12.49-3.58 0-1.43-.16-2.61-.49-3.56zM42.15 21.65V.35c.71-.11 1.42-.17 2.11-.17.7 0 1.41.06 2.14.17v21.3c-.73.11-1.43.17-2.11.17-.71 0-1.43-.06-2.14-.17zm-2.8.08a13.974 13.974 0 0 1-3.47-.11l-5.44-9.89.7-.36c.27-.14.59-.31.98-.53.38-.22.76-.49 1.11-.82.36-.32.66-.72.91-1.18.25-.46.38-1.01.38-1.64 0-1.25-.35-2.16-1.04-2.74-.7-.59-1.59-.88-2.69-.88-.42 0-.81.03-1.16.09v17.98c-.34.03-.69.07-1.04.1-.34.03-.68.04-1.01.04-.33 0-.67-.01-1.04-.03-.37-.02-.74-.06-1.13-.11V.35C26.26.26 27.06.17 27.8.1c.74-.07 1.56-.1 2.47-.1 1.06 0 2.11.1 3.14.3 1.03.19 1.96.54 2.79 1.05.82.5 1.49 1.18 2.01 2.04.51.86.76 1.95.76 3.27 0 .79-.09 1.49-.29 2.09-.19.6-.44 1.13-.74 1.58-.29.46-.62.85-.96 1.17-.35.33-.68.59-.99.79l-.49.32 5.06 9.01c-.39.04-.79.08-1.21.11zm-19.18-.97c-.8.47-1.73.8-2.78.97-1.05.18-2.15.27-3.31.27-.89 0-1.76-.02-2.63-.07-.87-.05-1.85-.15-2.95-.28V.33c.62-.1 1.33-.18 2.14-.24S12.46 0 13.68 0c1.06 0 2.06.09 3 .27.95.17 1.77.47 2.48.9.7.42 1.25.99 1.66 1.7.4.71.6 1.6.6 2.67 0 .63-.09 1.22-.27 1.76-.18.54-.43 1.02-.74 1.42-.31.41-.65.74-1.04 1.01-.38.26-.78.43-1.18.49.44.05.93.19 1.47.41.54.22 1.04.54 1.5.96.47.43.85.97 1.16 1.65.31.67.46 1.48.46 2.42 0 1.29-.23 2.34-.7 3.16-.48.82-1.11 1.46-1.91 1.94zm-3.1-16.18c-.2-.37-.46-.66-.78-.86a2.79 2.79 0 0 0-1.07-.42c-.39-.07-.78-.1-1.17-.1-.54 0-.99.03-1.36.09v5.68h1.28c.48 0 .92-.04 1.34-.13.41-.09.77-.25 1.08-.47.31-.23.55-.54.73-.92.17-.39.26-.88.26-1.47 0-.57-.1-1.04-.31-1.4zm1.09 9.29c-.19-.4-.47-.73-.83-.97-.35-.25-.78-.42-1.27-.52-.49-.1-1.03-.15-1.63-.15h-1.74v6.16c.27.04.59.07.94.09.36.02.68.03.97.03.41 0 .83-.04 1.27-.12.45-.08.86-.23 1.25-.46.38-.23.7-.54.95-.95.25-.4.38-.93.38-1.58 0-.61-.1-1.12-.29-1.53zM4.76.71v11.24H0L4.76.71zM0 4.14L4.76.71 0 8.98V4.14z"/></svg>